<svg xmlns="http://www.w3.org/2000/svg" enable-background="new 0 0 24 24" viewBox="0 0 24 24"
    id="celcius">
    <g>
        <path
            fill="currentColor"
            d="M15 21c-3.3 0-6-2.7-6-6V9c0-3.3 2.7-6 6-6s6 2.7 6 6c0 .6-.4 1-1 1s-1-.4-1-1c0-2.2-1.8-4-4-4s-4 1.8-4 4v6c0 2.2 1.8 4 4 4s4-1.8 4-4c0-.6.4-1 1-1s1 .4 1 1C21 18.3 18.3 21 15 21zM5.5 8C4.1 8 3 6.9 3 5.5S4.1 3 5.5 3 8 4.1 8 5.5 6.9 8 5.5 8zM5.5 5C5.2 5 5 5.2 5 5.5S5.2 6 5.5 6 6 5.8 6 5.5 5.8 5 5.5 5z"></path>
    </g>
</svg>