<svg xmlns="http://www.w3.org/2000/svg" enable-background="new 0 0 24 24" viewBox="0 0 24 24"
    id="farenheit">
    <g>
        <path
            fill="currentColor"
            d="M5.5 8C4.1 8 3 6.9 3 5.5S4.1 3 5.5 3 8 4.1 8 5.5 6.9 8 5.5 8zM5.5 5C5.2 5 5 5.2 5 5.5S5.2 6 5.5 6 6 5.8 6 5.5 5.8 5 5.5 5zM11 21c-.6 0-1-.4-1-1V6c0-1.1.9-2 2-2h7c.6 0 1 .4 1 1s-.4 1-1 1h-7v14C12 20.6 11.6 21 11 21z"></path>
        <path
            fill="currentColor"
            d="M19,13h-8c-0.6,0-1-0.4-1-1s0.4-1,1-1h8c0.6,0,1,0.4,1,1S19.6,13,19,13z"></path>
    </g>
</svg>