<svg xmlns="http://www.w3.org/2000/svg" id="car">
    <path
        d="M16 2C8.274 2 2 8.274 2 16s6.274 14 14 14 14-6.274 14-14S23.726 2 16 2zm-.45 1.021V5.52c-1.486.063-2.959.442-4.318 1.134L9.98 4.48a12.934 12.934 0 0 1 5.572-1.459zm1 .006c2.001.084 3.885.606 5.552 1.493l-1.256 2.175a10.478 10.478 0 0 0-4.295-1.17V3.027zM9.112 4.984l1.252 2.166c-.36.23-.714.476-1.05.754a10.45 10.45 0 0 0-2.126 2.403L5.02 9.057A13.031 13.031 0 0 1 9.11 4.984zm13.85.045a13.031 13.031 0 0 1 4.045 4.069L24.84 10.35a10.457 10.457 0 0 0-2.078-2.383 10.492 10.492 0 0 0-1.053-.77l1.252-2.168zm-6.916 1.469a9.48 9.48 0 0 1 6.072 2.234 9.495 9.495 0 0 1 2.133 11.979.5.5 0 0 0 .115.63.5.5 0 0 0 .002.003.5.5 0 0 0 .137.115l2.5 1.443C24.705 26.562 20.645 29 16 29c-4.628 0-8.675-2.42-10.979-6.057l2.575-1.486a.5.5 0 0 0 .142-.75.5.5 0 0 0-.031-.072 9.496 9.496 0 0 1 2.244-11.96 9.482 9.482 0 0 1 6.094-2.177zM15.5 9v7.092c-.579.208-1 .761-1 1.408 0 .647.421 1.198 1 1.406V20h1v-1.094c.579-.208 1-.76 1-1.406 0-.647-.421-1.2-1-1.408V9h-1zm-10.988.916 2.174 1.256A10.523 10.523 0 0 0 5.52 15.5H3.025a12.938 12.938 0 0 1 1.487-5.584zm22.998.045a12.936 12.936 0 0 1 1.465 5.539h-2.496a10.524 10.524 0 0 0-1.141-4.285L27.51 9.96zM3.025 16.5H5.52c.069 1.477.452 2.952 1.166 4.328l-2.174 1.256A12.937 12.937 0 0 1 3.025 16.5zm23.454 0h2.496a12.933 12.933 0 0 1-1.467 5.54l-2.172-1.255a10.448 10.448 0 0 0 1.143-4.285zM16 17c.282 0 .5.218.5.5 0 .282-.218.5-.5.5a.493.493 0 0 1-.5-.5c0-.282.218-.5.5-.5zm-5.5 6a.5.5 0 0 0-.5.5v2a.5.5 0 0 0 .5.5h11a.5.5 0 0 0 .5-.5v-2a.5.5 0 0 0-.5-.5h-11zm.5 1h10v1H11v-1z"
        color="#000" font-family="sans-serif" font-weight="400" overflow="visible"
        viewBox="0 0 24 24"
        style="line-height:normal;text-indent:0;text-align:start;text-decoration-line:none;text-decoration-style:solid;text-decoration-color:#000;text-transform:none;block-progression:tb;white-space:normal;isolation:auto;mix-blend-mode:normal;solid-color:#000;solid-opacity:1"></path>
</svg>