<?xml version="1.0" encoding="UTF-8"?>
<svg xmlns="http://www.w3.org/2000/svg" id="cancel" x="0" y="0" version="1.1" viewBox="0 0 29 29" xml:space="preserve" fill="#ffffff80">
    <path d="M23.339 5.661C18.457.779 10.543.779 5.661 5.661s-4.882 12.796 0 17.678 12.796 4.882 17.678 0 4.881-12.796 0-17.678zm-3.536 12.728a.999.999 0 1 1-1.414 1.414L14.5 15.914l-3.889 3.889a.997.997 0 0 1-1.414 0 .999.999 0 0 1 0-1.414l3.889-3.889-3.889-3.889a.999.999 0 1 1 1.414-1.414l3.889 3.889 3.889-3.889a.999.999 0 1 1 1.414 1.414L15.914 14.5l3.889 3.889z"></path>
</svg>